<?xml version="1.0" standalone="no"?><!DOCTYPE svg PUBLIC "-//W3C//DTD SVG 1.1//EN" "http://www.w3.org/Graphics/SVG/1.1/DTD/svg11.dtd"><svg t="1744815994700" class="icon" viewBox="0 0 1024 1024" version="1.1" xmlns="http://www.w3.org/2000/svg" p-id="3998" width="32" height="32" xmlns:xlink="http://www.w3.org/1999/xlink"><path d="M947.234375 716.52148438h-0.87890625c-5.71289063 0-10.37109375-4.65820313-10.37109375-10.37109376v-10.8984375c0-5.71289063 4.65820313-10.37109375 10.37109375-10.37109375h0.87890625c5.71289063 0 10.37109375 4.65820313 10.37109375 10.37109375v10.8984375c0 5.71289063-4.65820313 10.37109375-10.37109375 10.37109375z" fill="#FF0600" p-id="3999"></path><path d="M619.2265625 260.28125H104.45117187c-18.28125 0-33.13476563 14.85351563-33.13476562 33.13476563v314.64843749h581.04492188v-314.64843749c0-18.36914063-14.85351563-33.13476563-33.13476563-33.13476563z" fill="#FBB138" p-id="4000"></path><path d="M850.02734375 660.79882813h85.95703125v-97.55859376c0-38.40820313-12.91992188-51.41601563-36.5625-91.66992187-26.71875-45.52734375-33.046875-74.26757813-58.79882813-74.26757813H675.828125c-7.29492188 0-13.18359375 5.88867188-13.18359375 13.18359375v198.01757813h79.8046875c43.68164063-0.08789063 82.52929688 20.390625 107.578125 52.29492188z" fill="#d81e06" p-id="4001"></path><path d="M931.58984375 668.35742188h-86.39648438l-1.40624999-1.84570313 1.84570312 1.84570312c-25.04882813-31.81640625-63.89648438-52.29492188-107.578125-52.29492187h-628.41796875c-6.6796875 0-12.12890625 5.44921875-12.12890625 12.12890625v84.7265625c0 6.6796875 5.44921875 12.04101563 12.04101563 12.04101563h31.20117187c3.515625-50.53710938 45.43945313-90.43945313 96.85546875-90.43945313S330.9453125 674.421875 334.4609375 724.95898438h306.73828125c3.515625-50.53710938 45.43945313-90.43945313 96.85546875-90.43945313s93.33984375 39.90234375 96.85546875 90.43945313h100.98632813c4.04296875 0 7.3828125-3.33984375 7.38281249-7.38281251V681.62890625c0-6.85546875-5.09765625-12.39257813-11.68945312-13.27148438z" fill="#4D4D4D" p-id="4002"></path><path d="M909.6171875 540.30078125H803.18164063c-3.07617188 0-5.625-2.54882813-5.62500001-5.625V424.90039062c0-3.07617188 2.54882813-5.625 5.625-5.62499999h39.90234375c1.93359375 0 3.77929688 1.0546875 4.83398438 2.72460937l66.53320313 109.77539063c2.28515625 3.69140625-0.43945313 8.52539063-4.83398438 8.52539062zM777.34179688 540.30078125h-84.37500001c-5.71289063 0-10.37109375-4.65820313-10.37109375-10.37109375V429.55859375c0-5.71289063 4.65820313-10.37109375 10.37109375-10.37109375h84.375c5.71289063 0 10.37109375 4.65820313 10.37109375 10.37109375v100.37109375c0 5.71289063-4.65820313 10.37109375-10.37109375 10.37109375z" fill="#A5E0EF" p-id="4003"></path><path d="M316.1796875 722.14648438c2.54882813-0.87890625 4.04296875-3.515625 3.33984375-6.15234376l-2.8125-10.45898437c-0.703125-2.63671875-3.33984375-4.13085938-5.9765625-3.69140625 2.19726563-1.49414063 2.98828125-4.39453125 1.66992188-6.6796875l-5.44921876-9.40429688c-1.40625-2.37304688-4.30664063-3.07617188-6.6796875-1.93359375 1.7578125-2.02148438 1.84570313-5.09765625-0.08789062-7.03125l-7.64648438-7.64648437c-1.93359375-1.93359375-5.00976563-1.93359375-7.03125-0.08789063 1.14257813-2.37304688 0.43945313-5.36132813-1.93359375-6.6796875l-9.40429687-5.44921875c-2.37304688-1.31835938-5.18554688-0.52734375-6.6796875 1.66992188 0.52734375-2.63671875-1.0546875-5.2734375-3.69140625-5.9765625l-10.45898438-2.8125c-2.63671875-0.703125-5.2734375 0.79101563-6.15234374 3.33984375-0.26367188-2.63671875-2.28515625-4.74609375-5.00976563-4.74609375h-10.8984375c-2.72460938 0-4.74609375 2.109375-5.00976563 4.74609375-0.87890625-2.54882813-3.515625-4.04296875-6.15234374-3.33984375L209.65625 652.625c-2.63671875 0.703125-4.13085938 3.33984375-3.69140625 5.9765625-1.49414063-2.19726563-4.39453125-2.98828125-6.6796875-1.66992188l-9.40429688 5.44921876c-2.37304688 1.40625-3.07617188 4.30664063-1.93359374 6.6796875-2.02148438-1.7578125-5.09765625-1.84570313-7.03125 0.08789062l-7.64648438 7.64648438c-1.93359375 1.93359375-1.93359375 5.00976563-0.08789062 7.03125-2.37304688-1.14257813-5.36132813-0.43945313-6.6796875 1.93359375l-5.44921875 9.40429687c-1.31835938 2.37304688-0.52734375 5.18554688 1.66992187 6.6796875-2.63671875-0.52734375-5.2734375 1.0546875-5.9765625 3.69140625l-2.8125 10.45898438c-0.703125 2.63671875 0.79101563 5.2734375 3.33984375 6.15234374-2.63671875 0.26367188-4.74609375 2.28515625-4.74609375 5.00976563v10.8984375c0 2.72460938 2.109375 4.74609375 4.74609375 5.00976563-2.54882813 0.87890625-4.04296875 3.515625-3.33984375 6.15234374l2.8125 10.45898438c0.703125 2.63671875 3.33984375 4.13085938 5.9765625 3.69140625-2.19726563 1.49414063-2.98828125 4.39453125-1.66992188 6.6796875l5.44921876 9.40429688c1.40625 2.37304688 4.30664063 3.07617188 6.6796875 1.93359374-1.7578125 2.02148438-1.84570313 5.09765625 0.08789062 7.03125l7.64648438 7.64648438c1.93359375 1.93359375 4.921875 1.93359375 7.03125 0.08789062-1.14257813 2.37304688-0.43945313 5.36132813 1.93359375 6.6796875l9.40429687 5.44921875c2.37304688 1.31835938 5.18554688 0.52734375 6.6796875-1.66992187-0.52734375 2.63671875 1.0546875 5.2734375 3.69140625 5.9765625l10.45898438 2.8125c2.63671875 0.703125 5.2734375-0.79101563 6.15234374-3.33984375 0.26367188 2.63671875 2.28515625 4.74609375 5.00976563 4.74609375H242.17578125c2.72460938 0 4.74609375-2.109375 5.00976563-4.74609375 0.87890625 2.54882813 3.515625 4.04296875 6.15234374 3.33984375l10.45898438-2.8125c2.63671875-0.703125 4.13085938-3.33984375 3.69140625-5.9765625 1.49414063 2.19726563 4.39453125 2.98828125 6.6796875 1.66992188L283.484375 802.91796875c2.37304688-1.40625 3.07617188-4.30664063 1.93359375-6.6796875 2.02148438 1.7578125 5.09765625 1.84570313 7.03125-0.08789063l7.64648438-7.64648437c1.93359375-1.93359375 1.93359375-4.921875 0.08789062-7.03125 2.37304688 1.14257813 5.36132813 0.43945313 6.6796875-1.93359375l5.44921875-9.40429688c1.31835938-2.37304688 0.52734375-5.18554688-1.66992188-6.67968749 2.63671875 0.52734375 5.2734375-1.0546875 5.97656251-3.69140625l2.8125-10.45898438c0.703125-2.63671875-0.79101563-5.2734375-3.33984375-6.15234375 2.63671875-0.26367188 4.74609375-2.28515625 4.74609375-5.00976563v-10.89843749c0.08789063-2.72460938-2.02148438-4.83398438-4.65820313-5.09765626z" fill="#363636" p-id="4004"></path><path d="M213.50254326 741.02788848a24.609375 24.609375 0 1 0 46.25078994-16.83299619 24.609375 24.609375 0 1 0-46.25078994 16.83299619Z" fill="#FFFFFF" p-id="4005"></path><path d="M302.29296875 708.69921875c-13.18359375-36.29882813-53.34960938-55.01953125-89.56054688-41.74804688-36.29882813 13.18359375-55.01953125 53.34960938-41.74804687 89.56054688 13.18359375 36.29882813 53.34960938 55.01953125 89.56054688 41.74804688 36.29882813-13.18359375 55.01953125-53.26171875 41.74804687-89.56054688z m-49.13085938 69.2578125c-25.04882813 9.140625-52.734375-3.77929688-61.78710937-28.828125-9.140625-25.04882813 3.77929688-52.734375 28.828125-61.78710938 25.04882813-9.140625 52.734375 3.77929688 61.78710938 28.828125 9.05273438 24.9609375-3.8671875 52.64648438-28.828125 61.78710938z" fill="#4D4D4D" p-id="4006"></path><path d="M819.00195313 722.14648438c2.54882813-0.87890625 4.04296875-3.515625 3.33984374-6.15234376l-2.8125-10.45898437c-0.703125-2.63671875-3.33984375-4.13085938-5.9765625-3.69140625 2.19726563-1.49414063 2.98828125-4.39453125 1.66992188-6.6796875l-5.44921875-9.40429688c-1.40625-2.37304688-4.30664063-3.07617188-6.6796875-1.93359375 1.7578125-2.02148438 1.84570313-5.09765625-0.08789063-7.03125l-7.64648437-7.64648437c-1.93359375-1.93359375-5.00976563-1.93359375-7.03125-0.08789063 1.14257813-2.37304688 0.43945313-5.36132813-1.93359375-6.6796875l-9.40429688-5.44921875c-2.37304688-1.31835938-5.18554688-0.52734375-6.6796875 1.66992188 0.52734375-2.63671875-1.0546875-5.2734375-3.69140625-5.9765625l-10.45898437-2.8125c-2.63671875-0.703125-5.2734375 0.79101563-6.15234375 3.33984375-0.26367188-2.63671875-2.28515625-4.74609375-5.00976563-4.74609375h-10.8984375c-2.72460938 0-4.74609375 2.109375-5.00976562 4.74609375-0.87890625-2.54882813-3.515625-4.04296875-6.15234375-3.33984375l-10.45898438 2.8125c-2.63671875 0.703125-4.13085938 3.33984375-3.69140625 5.9765625-1.49414063-2.19726563-4.39453125-2.98828125-6.6796875-1.66992188l-9.40429687 5.44921875c-2.37304688 1.40625-3.07617188 4.30664063-1.93359375 6.6796875-2.02148438-1.7578125-5.09765625-1.84570313-7.03125 0.08789063l-7.64648438 7.64648437c-1.93359375 1.93359375-1.93359375 5.00976563-0.08789062 7.03125-2.37304688-1.14257813-5.36132813-0.43945313-6.6796875 1.93359375l-5.44921875 9.40429688c-1.31835938 2.37304688-0.52734375 5.18554688 1.66992187 6.6796875-2.63671875-0.52734375-5.2734375 1.0546875-5.9765625 3.69140625l-2.8125 10.45898437c-0.703125 2.63671875 0.79101563 5.2734375 3.33984375 6.15234375-2.63671875 0.26367188-4.74609375 2.28515625-4.74609375 5.00976563v10.8984375c0 2.72460938 2.109375 4.74609375 4.74609375 5.00976562-2.54882813 0.87890625-4.04296875 3.515625-3.33984375 6.15234375l2.8125 10.45898438c0.703125 2.63671875 3.33984375 4.13085938 5.9765625 3.69140625-2.19726563 1.49414063-2.98828125 4.39453125-1.66992187 6.6796875l5.44921875 9.40429687c1.40625 2.37304688 4.30664063 3.07617188 6.6796875 1.93359375-1.7578125 2.02148438-1.84570313 5.09765625 0.08789062 7.03125l7.64648438 7.64648438c1.93359375 1.93359375 4.921875 1.93359375 7.03125 0.08789062-1.14257813 2.37304688-0.43945313 5.36132813 1.93359375 6.6796875l9.40429687 5.44921875c2.37304688 1.31835938 5.18554688 0.52734375 6.6796875-1.66992187-0.52734375 2.63671875 1.0546875 5.2734375 3.69140625 5.9765625l10.45898438 2.8125c2.63671875 0.703125 5.2734375-0.79101563 6.15234375-3.33984375 0.26367188 2.63671875 2.28515625 4.74609375 5.00976562 4.74609375H744.91015625c2.72460938 0 4.74609375-2.109375 5.00976563-4.74609375 0.87890625 2.54882813 3.515625 4.04296875 6.15234374 3.33984375l10.45898438-2.8125c2.63671875-0.703125 4.13085938-3.33984375 3.69140625-5.9765625 1.49414063 2.19726563 4.39453125 2.98828125 6.6796875 1.66992187l9.40429688-5.44921875c2.37304688-1.40625 3.07617188-4.30664063 1.93359374-6.6796875 2.02148438 1.7578125 5.09765625 1.84570313 7.03125-0.08789062l7.64648438-7.64648438c1.93359375-1.93359375 1.93359375-4.921875 0.08789062-7.03125 2.37304688 1.14257813 5.36132813 0.43945313 6.6796875-1.93359375l5.44921875-9.40429687c1.31835938-2.37304688 0.52734375-5.18554688-1.66992187-6.6796875 2.63671875 0.52734375 5.2734375-1.0546875 5.9765625-3.69140625l2.8125-10.45898438c0.703125-2.63671875-0.79101563-5.2734375-3.33984375-6.15234375 2.63671875-0.26367188 4.74609375-2.28515625 4.74609375-5.00976562v-10.8984375c0.17578125-2.63671875-2.02148438-4.74609375-4.65820313-5.00976563z" fill="#363636" p-id="4007"></path><path d="M762.57617188 724.16796875c6.59179688 18.19335938-9.4921875 39.11132813-33.83789063 31.46484375-21.4453125-13.79882813-15.8203125-39.55078125 2.37304687-46.23046875 12.74414063-4.5703125 26.80664063 2.02148438 31.46484375 14.765625z" fill="#FFFFFF" p-id="4008"></path><path d="M805.203125 708.69921875c-13.18359375-36.29882813-53.34960938-55.01953125-89.56054688-41.74804688-36.29882813 13.18359375-55.01953125 53.34960938-41.74804687 89.56054688 13.18359375 36.29882813 53.34960938 55.01953125 89.56054688 41.74804688 36.2109375-13.18359375 54.93164063-53.26171875 41.74804687-89.56054688z m-49.21875 69.2578125c-25.04882813 9.140625-52.734375-3.77929688-61.78710938-28.828125-9.140625-25.04882813 3.77929688-52.734375 28.828125-61.78710938 25.04882813-9.140625 52.734375 3.77929688 61.78710938 28.828125 9.140625 24.9609375-3.77929688 52.64648438-28.828125 61.78710938z" fill="#4D4D4D" p-id="4009"></path><path d="M862.15625 404.24609375h37.35351563v4.74609375h-37.35351563z" fill="" p-id="4010"></path><path d="M895.02734375 404.24609375h4.48242188v44.38476563h-4.48242188z" fill="" p-id="4011"></path><path d="M890.28125 431.93164062h7.03125v16.61132813h-7.03125z" fill="" p-id="4012"></path><path d="M207.81054687 540.30078125H205.26171875c-15.99609375 0-29.09179688-13.09570313-29.09179688-29.09179688V365.22265625c0-15.99609375 13.09570313-29.09179688 29.09179688-29.09179688h2.54882813c15.99609375 0 29.09179688 13.09570313 29.09179687 29.09179688v145.8984375c0 16.08398438-13.09570313 29.1796875-29.09179688 29.1796875zM362.84960937 540.30078125h-2.54882812c-15.99609375 0-29.09179688-13.09570313-29.09179687-29.09179688V365.22265625c0-15.99609375 13.09570313-29.09179688 29.09179687-29.09179688h2.54882813c15.99609375 0 29.09179688 13.09570313 29.09179687 29.09179688v145.8984375c0 16.08398438-13.09570313 29.1796875-29.09179687 29.1796875zM516.04296875 540.30078125h-2.54882813c-15.99609375 0-29.09179688-13.09570313-29.09179687-29.09179688V365.22265625c0-15.99609375 13.09570313-29.09179688 29.09179688-29.09179688h2.54882812c15.99609375 0 29.09179688 13.09570313 29.09179688 29.09179688v145.8984375c0 16.08398438-13.09570313 29.1796875-29.09179688 29.1796875z" fill="#d81e06" p-id="4013"></path></svg>