<?xml version="1.0" standalone="no"?><!DOCTYPE svg PUBLIC "-//W3C//DTD SVG 1.1//EN" "http://www.w3.org/Graphics/SVG/1.1/DTD/svg11.dtd"><svg t="1745137254788" class="icon" viewBox="0 0 1024 1024" version="1.1" xmlns="http://www.w3.org/2000/svg" p-id="2676" width="80" height="80" xmlns:xlink="http://www.w3.org/1999/xlink"><path d="M485.960226 526.456912m-485.960226 0a485.960226 485.960226 0 1 0 971.920452 0 485.960226 485.960226 0 1 0-971.920452 0Z" fill="#4DBAEE" p-id="2677"></path><path d="M217.521197 945.489616c14.227836-77.294674 125.539725-137.472748 260.717661-137.472749 144.843145 0 262.283533 69.060348 262.283533 154.265374v0.107991a522.218259 522.218259 0 0 1-246.840797 61.608958A522.08327 522.08327 0 0 1 217.494199 945.462618z" fill="#BAE8FF" p-id="2678"></path><path d="M463.390074 755.93813h33.585251A64.200745 64.200745 0 0 1 561.203068 820.138875a71.922113 71.922113 0 0 1-63.795779 71.463151l-16.279667 1.862848-18.115518-2.024835A71.760127 71.760127 0 0 1 399.189328 820.138875 64.200745 64.200745 0 0 1 463.390074 755.93813z" fill="#FFFFFF" p-id="2679"></path><path d="M477.806894 741.332325h6.58746a64.200745 64.200745 0 1 1 0 128.374493h-6.58746a64.200745 64.200745 0 1 1 0-128.374493z" fill="#DFA48E" p-id="2680"></path><path d="M667.520366 455.398728c0-106.506283-72.219089-161.230804-178.725372-161.230804-106.506283 0-183.045019 28.401675-183.045018 134.88096l-9.800198 79.91346s-24.055031 12.499977-27.699733-6.749448c-15.577725-82.47825-17.926533-139.146611-17.494568-170.086079 0.269978-18.520484 3.320728-40.604677 7.505385-51.403793 10.25916-26.619821 34.773154-64.416728 81.425336-64.416728C397.299483 128.2935 499.378128 146.705993 567.16958 158.935992 634.988029 171.138993 631.073349 157.181135 647.67699 157.181135c16.603641 0 15.469734 9.071258 0 69.735293 43.520438 0 67.764454 18.412493 72.759045 55.183483 0.917925 6.776445 1.646865 32.802315 1.781855 45.896244 0.48596 48.164058-2.32181 153.671423-15.199756 173.136829-26.99779 40.820659-25.377923 7.829359-25.377923 7.82936l-14.119845-53.563616z" fill="#513430" p-id="2681"></path><path d="M694.221181 576.591808a46.274213 46.274213 0 1 0 0-92.548425 46.274213 46.274213 0 0 0 0 92.548425z m0 15.442737a61.716949 61.716949 0 1 1 0-123.433898 61.716949 61.716949 0 0 1 0 123.433898z" fill="#FBC8A9" p-id="2682"></path><path d="M694.221181 530.317596m-46.274213 0a46.274213 46.274213 0 1 0 92.548426 0 46.274213 46.274213 0 1 0-92.548426 0Z" fill="#FBC8A9" p-id="2683"></path><path d="M632.53123 538.038964a46.274213 38.579842 0 1 0 92.548425 0 46.274213 38.579842 0 1 0-92.548425 0Z" fill="#DCA387" p-id="2684"></path><path d="M277.699272 576.591808a46.274213 46.274213 0 1 0 0-92.548425 46.274213 46.274213 0 0 0 0 92.548425z m0 15.442737a61.716949 61.716949 0 1 1 0-123.433898 61.716949 61.716949 0 0 1 0 123.433898z" fill="#FBC8A9" p-id="2685"></path><path d="M277.699272 530.317596m-46.274213 0a46.274213 46.274213 0 1 0 92.548425 0 46.274213 46.274213 0 1 0-92.548425 0Z" fill="#FBC8A9" p-id="2686"></path><path d="M246.840797 538.038964a46.274213 38.579842 0 1 0 92.548425 0 46.274213 38.579842 0 1 0-92.548425 0Z" fill="#DCA387" p-id="2687"></path><path d="M486.095215 284.880684c37.121962 0 74.972864-15.820705 111.770852-5.75053 77.159685 21.112272 79.265512 67.116507 80.939376 133.909041v197.461838c-5.993509 101.997652-89.632664 182.91003-192.143274 183.261001h-1.700861c-102.348623-0.512958-185.879787-81.37134-191.846298-183.261001V413.039195c1.673863-66.792533 3.779691-112.796768 80.912377-133.909041 36.797988-10.070176 74.64889 5.723532 111.770853 5.75053h0.269977z" fill="#FBC8A9" p-id="2688"></path><path d="M435.933321 415.954956a7.721368 7.721368 0 1 1-9.557218 12.122008 61.365977 61.365977 0 0 0-32.802315-12.985937 61.473969 61.473969 0 0 0-44.654346 13.876864 7.721368 7.721368 0 0 1-9.827195-11.879028 76.889707 76.889707 0 0 1 55.83143-17.386577c15.172758 1.34989 29.3196 7.019425 41.009644 16.25267z" fill="#513531" p-id="2689"></path><path d="M393.384803 491.737753m-26.99779 0a26.99779 26.99779 0 1 0 53.99558 0 26.99779 26.99779 0 1 0-53.99558 0Z" fill="#513531" p-id="2690"></path><path d="M563.092913 491.737753m-26.99779 0a26.99779 26.99779 0 1 0 53.995581 0 26.99779 26.99779 0 1 0-53.995581 0Z" fill="#513531" p-id="2691"></path><path d="M525.377 415.118024a7.721368 7.721368 0 1 0 9.314238 12.283995 61.365977 61.365977 0 0 1 33.045295-12.418984 61.473969 61.473969 0 0 1 44.411365 14.659801 7.721368 7.721368 0 0 0 10.016181-11.717041 76.889707 76.889707 0 0 0-55.507457-18.3315c-15.199756 1.079912-29.427591 6.47947-41.30662 15.523729z" fill="#513531" p-id="2692"></path><path d="M448.973253 581.289424a7.721368 7.721368 0 0 1 12.337991-9.28724c1.214901 1.619867 4.454635 6.371479 4.211655 6.020507 3.509713 4.994591 6.560463 6.290485 20.437327 6.290485 14.038851 0 17.170595-1.403885 20.950286-6.83044 0.026998-0.053996 2.969757-4.427638 4.049668-5.939514a7.721368 7.721368 0 1 1 12.499977 9.044259c-0.890927 1.241898-3.698697 5.426556-3.887682 5.696534-6.884437 9.935187-14.848785 13.4449-33.612249 13.4449-18.520484 0-26.322846-3.29373-33.018297-12.796953 0.053996 0.080993-2.996755-4.373642-3.968676-5.642538zM411.338334 657.180213a7.721368 7.721368 0 0 1 14.011853-6.452472c9.638211 21.004281 24.513994 23.407084 56.263395 23.407084 31.722404 0 55.34547-2.429801 65.010679-23.407084a7.721368 7.721368 0 1 1 14.038851 6.452472c-12.014017 26.052868-36.312028 44.870328-74.675888 44.870327s-62.661871-18.81746-74.64889-44.870327z" fill="#D49D82" p-id="2693"></path></svg>